<svg width="27" height="30" viewBox="0 0 27 30" fill="none" xmlns="http://www.w3.org/2000/svg">
<path d="M25.0594 13.03L25.1972 12.806C26.0234 11.3283 26.7576 10.03 26.8036 6.89559V6.58209V6.40303C26.7118 4.16415 25.8856 2.59694 24.1417 1.43275C22.7189 0.492524 20.7454 0 18.5884 0H18.5423C17.0738 0 15.5591 0.223968 14.3198 0.671627C16.018 1.79092 17.1195 2.9105 17.2113 3C17.5326 3.3135 17.5326 3.80606 17.2113 4.11929C17.0735 4.25374 16.8442 4.34326 16.6607 4.34326C16.4311 4.34326 16.2476 4.25373 16.064 4.11929C15.972 3.98514 10.2808 -2.59697 2.66186 1.43308C0.825907 2.4182 0.0917343 4.16448 0 6.40336V6.89592C0.0460305 10.0303 0.734449 11.2841 1.60639 12.8063L1.7442 13.0303C1.83597 13.1648 1.882 13.2543 1.97376 13.3884H7.52712C7.61889 13.3884 8.1698 13.3435 8.35333 12.8959V11.5077C8.35333 11.2838 8.35333 10.6121 8.8582 10.03C9.13351 9.76143 9.63839 9.40301 10.5103 9.40301H16.385C17.257 9.40301 17.7619 9.76114 18.0372 10.03C18.542 10.5672 18.542 11.2837 18.542 11.5077V12.8959C18.7256 13.3884 19.2765 13.3884 19.3682 13.3884H24.9216C24.8753 13.254 24.9673 13.1645 25.0591 13.03L25.0594 13.03Z" fill="#6B5AE0"/>
<path d="M21.5712 28.1193C22.3057 26.9102 23.2234 24.4476 23.2234 19.7458C23.2234 17.6414 23.5904 16.1188 24.0953 14.91L19.2764 14.9103H19.2304C18.5877 14.9103 17.3026 14.5522 16.9355 13.2089C16.9355 13.1194 16.8895 13.0745 16.8895 12.985V11.4626V11.3731C16.8895 11.3282 16.8895 11.1491 16.7977 11.015C16.7059 10.9254 16.4306 10.8805 16.3389 10.8805L10.4641 10.8803C10.3263 10.8803 10.0971 10.8803 10.0053 11.0147C9.91353 11.1042 9.91353 11.3282 9.91353 11.3728V11.4624V12.9847C9.91353 13.0742 9.91353 13.1191 9.8675 13.2086C9.45439 14.5519 8.12357 14.91 7.52693 14.91H2.75376C3.25864 16.1191 3.62568 17.6414 3.57997 19.7458C3.57997 24.4475 4.45189 26.91 5.23208 28.1193C6.05828 29.4625 6.5171 30 7.89394 30C9.17897 30 9.91344 28.9253 10.0052 27.8956C10.0513 27.3584 10.0513 26.6865 10.097 26.0148C10.143 24.4476 10.143 22.5223 10.7854 20.4625C11.015 19.7013 11.3361 18.7611 11.887 17.955C12.2083 17.4625 12.9425 16.9699 13.6309 16.9699C14.1815 16.9699 14.6864 17.2834 15.0538 17.9101C15.6044 18.7608 15.9257 19.6564 16.1553 20.5071C16.752 22.4773 17.0272 24.7608 16.8437 26.6415C16.752 27.8506 16.9815 28.746 17.5322 29.3281C18.0828 29.9551 18.7715 29.9997 19.0007 29.9997C20.1943 30 20.7449 29.4628 21.5712 28.1192L21.5712 28.1193Z" fill="#6B5AE0"/>
</svg>
