<svg width="23" height="23" viewBox="0 0 23 23" fill="none" xmlns="http://www.w3.org/2000/svg">
<path d="M10.5512 19.1858C15.32 19.1858 19.1858 15.32 19.1858 10.5512C19.1858 5.78246 15.32 1.91663 10.5512 1.91663C5.78246 1.91663 1.91663 5.78246 1.91663 10.5512C1.91663 15.32 5.78246 19.1858 10.5512 19.1858Z" fill="#1E1A34"/>
<path d="M21.0737 18.1604C20.7575 17.5758 20.0866 17.25 19.1858 17.25C18.5054 17.25 17.9208 17.5279 17.5758 18.0071C17.2308 18.4863 17.1541 19.1283 17.365 19.7704C17.7771 21.0163 18.4958 21.2942 18.8887 21.3421C18.9462 21.3517 19.0037 21.3517 19.0708 21.3517C19.4925 21.3517 20.1441 21.1696 20.7766 20.2208C21.2846 19.4829 21.3804 18.745 21.0737 18.1604Z" fill="#1E1A34"/>
</svg>
