<svg width="50" height="50" viewBox="0 0 50 50" fill="none" xmlns="http://www.w3.org/2000/svg">
<path d="M34.7032 16.5946C33.6517 14.8693 32.0046 13.7975 30.4043 13.7975C30.174 13.7975 29.9711 13.9491 29.9057 14.1699C28.7209 18.1726 27.0459 18.9767 24.7272 18.9767C22.4085 18.9767 20.7335 18.1727 19.5485 14.1701C19.4831 13.9494 19.2802 13.7978 19.0499 13.7978C17.4499 13.7978 15.8025 14.8695 14.751 16.5949C13.9295 17.9431 13.5021 19.6004 13.5154 21.388C13.5307 23.4451 14.1135 25.6036 15.2484 27.804C17.1523 31.4966 17.4104 34.6716 17.5989 36.9903C17.7017 38.2563 17.783 39.2561 18.1008 39.9968C18.4866 40.8963 19.1978 41.3333 20.2746 41.3333C21.4454 41.3333 22.3489 40.5464 22.9598 38.9942C23.4427 37.7674 23.7034 36.205 23.9332 34.8267C24.0713 33.9994 24.2015 33.2178 24.3605 32.6266C24.5267 32.0087 24.6701 31.8126 24.7272 31.7552C24.7844 31.8126 24.9278 32.0087 25.094 32.6266C25.253 33.2178 25.3832 33.9992 25.5213 34.8267C25.7511 36.205 26.0118 37.7674 26.4946 38.9942C27.1053 40.5464 28.009 41.3333 29.1799 41.3333C30.2567 41.3333 30.968 40.8962 31.3537 39.9968C31.6715 39.2561 31.7528 38.2561 31.8556 36.9903C32.0441 34.6718 32.302 31.4964 34.2061 27.804C35.3407 25.6037 35.9238 23.4451 35.9391 21.388C35.9521 19.6002 35.525 17.9428 34.7033 16.5946H34.7032Z" fill="#6B5AE0"/>
<path d="M30.8211 8.54225C30.7229 8.41087 30.5685 8.33334 30.4044 8.33334C28.3958 8.33334 27.4365 8.88139 26.6656 9.3215C26.0711 9.66133 25.6016 9.92941 24.7274 9.92941C23.8532 9.92941 23.3836 9.66107 22.7889 9.3215C22.018 8.88116 21.0589 8.33334 19.0501 8.33334C18.886 8.33334 18.7316 8.41064 18.6334 8.54225C18.5352 8.67363 18.5048 8.84378 18.5515 9.00093C19.178 11.117 19.9649 12.5134 21.0278 13.3955C21.8711 14.0951 22.8913 14.4628 24.2074 14.5373V16.0587L23.7973 15.6485C23.5942 15.4454 23.265 15.4454 23.0619 15.6485C22.8588 15.8516 22.8588 16.1808 23.0619 16.3839L24.3597 17.6817C24.6048 17.8995 24.85 17.8995 25.0951 17.6817L26.3929 16.3839C26.596 16.1808 26.596 15.8516 26.3929 15.6485C26.1898 15.4454 25.8606 15.4454 25.6575 15.6485L25.2474 16.0587V14.5373C26.5635 14.4628 27.5837 14.0951 28.4268 13.3955C29.4899 12.5134 30.2768 11.117 30.9031 9.00093C30.9497 8.84356 30.9193 8.67364 30.8212 8.54225H30.8211Z" fill="#6B5AE0"/>
</svg>
