<svg width="30" height="30" viewBox="0 0 30 30" fill="none" xmlns="http://www.w3.org/2000/svg">
<path d="M23.675 6.77505L17.2125 3.03755C15.975 2.32505 14.0375 2.32505 12.8 3.03755L6.27498 6.80005C3.68748 8.55005 3.53748 8.81255 3.53748 11.6V18.3875C3.53748 21.175 3.68748 21.45 6.32498 23.225L12.7875 26.9625C13.4125 27.325 14.2125 27.5 15 27.5C15.7875 27.5 16.5875 27.325 17.2 26.9625L23.725 23.2C26.3125 21.45 26.4625 21.1875 26.4625 18.4V11.6C26.4625 8.81255 26.3125 8.55005 23.675 6.77505ZM15 19.0625C12.7625 19.0625 10.9375 17.2375 10.9375 15C10.9375 12.7625 12.7625 10.9375 15 10.9375C17.2375 10.9375 19.0625 12.7625 19.0625 15C19.0625 17.2375 17.2375 19.0625 15 19.0625Z" fill="white"/>
</svg>
