<svg width="50" height="50" viewBox="0 0 50 50" fill="none" xmlns="http://www.w3.org/2000/svg">
<path d="M37.9617 28.392C37.9617 32.0025 35.0242 34.94 31.4137 34.94L17.798 34.9403C14.1875 34.9403 11.25 32.0028 11.25 28.3923V26.4004C11.25 25.0549 12.3446 23.9604 13.69 23.9604H35.5221C36.8676 23.9604 37.9621 25.0549 37.9621 26.4004L37.9617 28.392ZM36.5279 15.5299C36.2338 15.1733 35.8772 15.0003 35.4377 15.0003C34.6341 15.0003 33.8961 15.1074 33.2446 15.3186L33.0795 15.3722C32.8004 15.4741 32.5264 15.6044 32.2589 15.7651C31.5672 16.1722 30.712 16.1677 30.031 15.7667C29.7754 15.6108 29.4955 15.4771 29.1936 15.3664L29.0544 15.3225C28.3911 15.1077 27.6545 15.0006 26.8535 15.0006C25.4835 15.0006 25.0837 16.8321 24.9668 17.9451C25.0354 18.6763 25.0368 19.4643 24.9704 20.2324C24.9738 20.2726 24.9796 20.3128 24.9835 20.353H26.0338C26.0374 20.353 26.0405 20.351 26.0441 20.351H28.2442V19.7254C28.2442 19.2698 28.6136 18.9004 29.0692 18.9004C29.5249 18.9004 29.8943 19.2698 29.8943 19.7254V19.9503H32.3943V19.7254C32.3943 19.2698 32.7637 18.9004 33.2194 18.9004C33.675 18.9004 34.0444 19.2698 34.0444 19.7254V20.351H37.3095C37.4794 18.7031 37.3533 16.5304 36.528 15.5299L36.5279 15.5299ZM25.0821 21.0726C25.0911 21.1239 25.098 21.178 25.1075 21.228C25.268 22.0676 25.6022 22.6691 25.9725 23.24H36.3153C36.6856 22.6686 37.0204 22.0673 37.1845 21.2271C37.1965 21.1655 37.2068 21.0991 37.2179 21.0343H34.0447V21.6998C34.0447 22.1554 33.6752 22.5249 33.2196 22.5249C32.7639 22.5249 32.3945 22.1554 32.3945 21.6998V21.4749H29.8945V21.6998C29.8945 22.1554 29.5251 22.5249 29.0694 22.5249C28.6138 22.5249 28.2444 22.1554 28.2444 21.6998V21.0723L25.0821 21.0726ZM15.1679 21.0726H12.0007C12.0096 21.1242 12.018 21.1783 12.0278 21.228C12.1916 22.0676 12.5264 22.6691 12.8966 23.2403H23.2395C23.6098 22.6688 23.9446 22.0676 24.1086 21.2274C24.1181 21.1775 24.1254 21.1236 24.1343 21.0728H20.9674V21.7004C20.9674 22.156 20.598 22.5254 20.1424 22.5254C19.6867 22.5254 19.3173 22.156 19.3173 21.7004V21.4755H16.8173V21.7004C16.8173 22.156 16.4479 22.5254 15.9922 22.5254C15.5366 22.5254 15.1672 22.156 15.1672 21.7004V21.0728L15.1679 21.0726ZM24.2486 20.2352C24.1981 19.6881 24.159 18.8563 24.2449 17.9414C24.1308 16.829 23.7341 15 22.3585 15C21.5574 15 20.8212 15.1071 20.1696 15.3184L20.0906 15.3435C20.0588 15.3544 20.0264 15.3647 19.9932 15.3742C19.7165 15.4768 19.4366 15.6105 19.1863 15.7634C18.4952 16.1705 17.642 16.1702 16.9561 15.7662C16.6857 15.6038 16.4117 15.4735 16.116 15.3663L15.9795 15.322C15.3163 15.1071 14.5797 15 13.7787 15C13.3375 15 12.9801 15.1738 12.6852 15.5312C11.8593 16.5324 11.7334 18.7054 11.9028 20.3527H15.1682V19.7252C15.1682 19.2695 15.5376 18.9001 15.9932 18.9001C16.4489 18.9001 16.8183 19.2695 16.8183 19.7252V19.9501H19.3183V19.7252C19.3183 19.2695 19.6877 18.9001 20.1434 18.9001C20.599 18.9001 20.9684 19.2695 20.9684 19.7252V20.3527H24.2354C24.2391 20.3131 24.2447 20.2751 24.2486 20.2352L24.2486 20.2352Z" fill="#6B5AE0"/>
</svg>
