<svg width="37" height="26" viewBox="0 0 37 26" fill="none" xmlns="http://www.w3.org/2000/svg">
<path d="M17.8113 1.12812C16.4902 1.23687 15.2202 1.67583 14.1236 2.40251C13.3604 2.91595 12.4864 3.25155 11.5691 3.3835C10.6518 3.25153 9.7778 2.91594 9.01432 2.40251C7.91762 1.67585 6.64764 1.23687 5.32689 1.12812C2.0438 1.12812 0.00921394 3.48522 0.00921394 7.26308C-0.0877407 10.8651 0.581355 14.4479 1.97439 17.7849L5.67341 25.2958C5.76775 25.4969 5.92159 25.6657 6.11521 25.7804C6.30912 25.8951 6.5338 25.9503 6.76022 25.9387C6.98751 25.9277 7.20696 25.8523 7.39158 25.7223C7.5762 25.5923 7.71814 25.4128 7.80058 25.2055L10.5518 18.0893C10.7829 17.2886 11.2224 16.9162 11.5576 16.9162C11.8929 16.9162 12.3437 17.2883 12.6212 18.1793L15.3377 25.2052L15.3374 25.2055C15.4195 25.4128 15.5617 25.5923 15.7464 25.7223C15.931 25.8523 16.1501 25.9276 16.3777 25.9387H16.4239C16.6416 25.9376 16.8547 25.8767 17.0387 25.7631C17.2227 25.6493 17.3702 25.4873 17.4643 25.2958L21.1633 17.7849C22.5563 14.4477 23.2254 10.8649 23.1284 7.26308C23.1284 3.48521 21.0939 1.12811 17.8111 1.12811L17.8113 1.12812Z" fill="#6B5AE0"/>
<path d="M35.8438 22.5553H32.3761V20.2999H34.6878C34.9941 20.2988 35.2876 20.1798 35.5041 19.9686C35.7209 19.7573 35.8428 19.471 35.8437 19.1719V15.7888H32.376C31.963 15.7888 31.5813 15.5739 31.3748 15.225C31.1684 14.8758 31.1684 14.4459 31.3748 14.097C31.5812 13.7481 31.9629 13.5331 32.376 13.5331H35.844L35.8437 11.2777H32.376C31.963 11.2777 31.5813 11.0628 31.3748 10.7139C31.1684 10.365 31.1684 9.93511 31.3748 9.58588C31.5812 9.23697 31.9629 9.02203 32.376 9.02203H35.844L35.8437 7.8943C35.8411 6.9977 35.4748 6.13873 34.8251 5.50494C34.1755 4.87086 33.2948 4.51373 32.376 4.5109V1.1278C32.376 0.724803 32.1557 0.352417 31.7981 0.151014C31.4402 -0.0503381 30.9995 -0.0503381 30.6419 0.151014C30.2842 0.352367 30.0639 0.724781 30.0639 1.1278V4.51119V4.51091C29.1452 4.51374 28.2645 4.87086 27.6148 5.50495C26.9649 6.13875 26.5988 6.99771 26.5962 7.89431V19.1716C26.5971 19.4706 26.719 19.7569 26.9356 19.9682C27.1524 20.1795 27.4459 20.2984 27.7521 20.2995H30.0639V22.5549H26.5962C26.1831 22.5549 25.8014 22.7699 25.595 23.1188C25.3883 23.4677 25.3883 23.8976 25.595 24.2465C25.8014 24.5954 26.1831 24.8103 26.5962 24.8103H35.8443H35.844C36.2571 24.8103 36.6388 24.5954 36.8452 24.2465C37.0516 23.8976 37.0516 23.4677 36.8452 23.1188C36.6388 22.7699 36.2571 22.5549 35.844 22.5549L35.8438 22.5553Z" fill="#6B5AE0"/>
</svg>
