<svg width="430" height="287" viewBox="0 0 430 287" fill="none" xmlns="http://www.w3.org/2000/svg">
<path d="M430 8.9354V7.4949L397.578 10.6325L396.299 1.77518L411.214 0.354033L411.18 0H399.818L394.665 0.490917L396.15 10.7708L391.503 11.2209L380.94 7.76222L385.579 0H383.909L379.544 7.30498L374.232 5.56563L377.565 0H375.895L372.835 5.1084L367.714 3.4314L369.741 0H368.076L366.319 2.97488L357.234 0H352.332L341.649 9.31165L336.733 3.4357L340.794 0H338.575L335.814 2.33633L333.858 0H331.989L334.719 3.26227L288.152 42.6639L280.732 35.0601L312.869 7.03193L317.162 12.5581L330.365 0H328.286L317.322 10.4282L313.952 6.08808L320.932 0H318.752L313.071 4.95432L310.669 1.86262L312.692 0H310.576L308.729 1.70137L311.989 5.89817L300.301 16.0913V0H298.868V4.30358L265.431 19.426L260.736 4.89985L271.16 0H263.915L264.028 0.1849L240.642 11.1771L234.65 0H226.495L188.055 18.2578L182.81 11.3663L195.972 1.96223L200.802 7.2885L211.974 0H209.351L201.043 5.42015L196.177 0.0544667L181.942 10.2254L174.159 0H171.872L144.939 27.1316L139.562 22.7119L161.82 0H159.813L138.45 21.7981L132.914 17.248L148.587 0H146.65L131.222 16.9793H114.482L126.3 4.99373L91.322 5.97413L94.1306 0H92.5468L88.8652 7.83102L74.1564 16.5185L60.372 0H58.5051L72.9058 17.2566L61.3546 24.0793L43.2594 0H41.4656L50.0943 11.4817L37.2093 19.7872L22.4467 0H20.6579L36.0018 20.5662L22.9978 28.9483L1.69062 0H0V0.121833L8.34487 11.4588L0 16.4998V18.1747L9.19842 12.6184L14.9131 20.3827L0 29.1827V30.8468L15.7674 21.543L19.9335 27.2031L0 39.0311V40.6995L20.7839 28.3584L26.7496 36.4633L0 52.4012V54.0696L27.6031 37.6229L31.3441 42.7047L0 63.0473V64.7559L32.7366 43.5096L37.6049 40.8909L30.8539 60.2681L11.5462 68.671L26.3339 81.6756L26.2952 82.1415L0 93.2082V96.3179L26.0265 85.365L25.2245 94.9999L0 105.592V107.147L25.0898 96.611L22.9885 121.848L10.9793 114.729L0 116.902V121.286L10.2018 119.267L21.3352 125.866L0 148.566V150.659L22.5987 126.615L33.6783 133.182L0 170.567V173.79L19.9169 192.995L13.4698 200.265L23.1311 210.343L0 232.789V234.786L8.8623 226.186L22.7549 246.761L13.3271 253.479L0 248.354V249.89L11.9275 254.477L0 262.977V266.497L15.136 255.71L20.9589 257.95L0 273.319V276.874L24.1466 259.167L54.3241 270.555L46.8048 286.667H48.3872L55.6943 271.008L68.9663 274.63L69.6428 274.9L69.6736 274.822L79.5994 277.531L79.8431 277.623L79.8524 277.599L113.082 286.667H118.527L93.3745 279.804L97.3011 268.047L141.226 280.908L140.3 286.667H143.203L148.506 253.692L170.21 256.277L168.465 286.667H169.901L171.635 256.447L190.501 258.694V286.667H191.935V258.864L210.863 261.119L211.344 286.667H212.778L212.3 261.29L219.731 262.175V283.142H230.575V286.667H232.009V281.709H221.164V273.42L271.431 265.201L272.503 276.605L263.966 278.56L265.232 286.667H266.682L265.588 279.659L272.639 278.044L273.449 286.667H274.889L272.849 264.97L302.928 260.051L304.413 275.24L324.647 273.582L326.126 286.667H327.57L325.916 272.04L305.703 273.696L304.345 259.82L315.634 257.974L351.385 276.133L347.011 286.667H348.563L353.218 275.457L318.029 257.582L323.435 256.699L365.238 276.251V283.098L366.951 283.453L382.471 286.667H403.677L369.538 279.597V273.514L353.75 266.131L356.895 258.253L407.692 286.667H410.628L400.661 281.092L415.714 245.589L428.79 252.957L414.355 286.667H415.915L421.414 273.823L430 278.584V276.946L421.981 272.498L430 253.772V251.994L387.361 227.966L395.812 210.005L372.793 197.736L375.675 191.721L399.056 203.344L430 249.452V246.881L400.14 202.388L400.034 202.23L375.011 189.791L371.527 197.06L315.747 167.329L325.929 154.462L430 210.042V208.417L408.656 197.018L416.846 183.62L423.057 186.967L418.282 195.355L430 201.522V199.902L420.261 194.777L424.319 187.647L430 190.709V189.081L417.595 182.395L425.322 169.758L430 172.421V170.772L415.435 162.479L426.847 145.086L415.394 138.695L428.955 118.774L430 119.314V117.7L418.247 111.628L427.803 75.536L430 75.1282V70.7551L420.504 72.5166L403.663 56.5823L410.047 50.7307L430 68.509V66.5891L411.109 49.7574L430 32.4392V30.4949L407.049 51.5341L397.214 42.1766L413.042 23.5275L430 19.0913V16.1286L426.857 16.9506H398.721L392.23 19.1336L390.682 15.1625L391.895 12.6227L430 8.9354ZM380.186 9.02355L390.424 12.3754L382.73 28.494L365.922 32.8907L380.186 9.02355ZM290.309 132.499L316.582 114.407L324.515 120.391L300.695 136.732L290.309 132.499ZM299.281 137.703L298.541 138.211L292.146 134.796L299.281 137.703ZM352.465 236.838L346.44 233.893L356.845 212.414L362.612 215.664L352.465 236.838ZM363.863 216.37L370.657 220.198L362.037 241.516L353.752 237.468L363.863 216.37ZM345.152 233.264L333.112 227.381L343.56 204.928L355.594 211.709L345.152 233.264ZM67.8325 190.315L71.9813 192.955L66.5991 202.133L62.6202 199.031L67.8325 190.315ZM60.3426 197.254L55.3711 193.377L45.6947 200.049L41.5846 194.347L54.7935 181.463L65.4367 188.736L60.3426 197.254ZM73.0298 39.6159L76.0355 37.9568L82.0089 37.4286L91.9799 54.4975L79.2598 59.851L68.337 42.0984L73.0405 39.6302L73.0298 39.6159ZM290.54 225.918L279.81 220.581L286.48 206.189L297.171 211.413L290.54 225.918ZM298.459 212.042L308.256 216.83L298.306 240.199L287.828 235.297L298.459 212.042ZM277.923 221.243L289.944 227.222L286.531 234.69L266.399 225.275L272.618 213.008L260.465 206.294L264.425 195.411L285.192 205.559L277.923 221.243ZM258.699 206.955L270.714 213.593L265.1 224.667L240.276 213.056L249.218 187.98L263.13 194.778L258.699 206.955ZM238.972 212.447L223.185 205.063L232.992 180.05L247.922 187.347L238.972 212.447ZM223.335 192.901L205.367 166.074L207.739 154.659L235.019 132.688L242.539 143.993L242.496 144.029L223.335 192.901ZM211.139 231.242L159.782 216.153L164.562 206.304L172.031 202.783L172.559 203.161L193.923 196.124L220.02 208.329L211.139 231.242ZM216.478 221.434L255.507 232.626L253.598 243.716L212.518 231.647L216.478 221.434ZM146.543 192.859C128.232 183.686 100.677 169.751 98.6814 168.39C98.604 168.29 98.4987 168.209 98.3718 168.159C98.1274 168.064 97.7505 168.083 97.491 168.453C97.4645 168.491 97.433 168.539 97.3921 168.605C97.3248 168.714 97.233 168.87 97.1112 169.08C96.8926 169.457 96.578 170.011 96.1767 170.729C95.5016 171.935 94.5692 173.618 93.406 175.733C91.901 178.469 90.3896 181.235 89.7417 182.421L83.3111 179.299L96.7543 156.37L115.742 153.299C127.548 161.074 140.137 169.58 142.757 171.677C142.817 173.226 142.768 177.19 142.674 180.575L142.642 181.717L169.363 200.871L162.425 204.143L160.89 207.304L144.881 199.076L147.121 193.148L146.543 192.859ZM75.1267 193.257L82.5836 180.538L102 189.967L95.5095 206.227L75.1267 193.257ZM94.9691 207.582L81.6806 240.875L69.7474 237.339L80.0445 212.619L68.8796 203.912L74.4015 194.495L94.9691 207.582ZM68.6954 148.94L54.5383 140.548L60.104 106.484L75.8176 140.869L66.9689 144.953L68.6954 148.94ZM62.6381 69.9567L75.7818 64.4248L79.3551 72.2687L66.5941 77.6272L62.6381 69.9567ZM65.269 78.184L42.2532 87.849L43.5404 77.9941L61.313 70.5143L65.269 78.184ZM203.303 43.5504L213.604 38.8369L223.692 55.5109L218.837 68.418L198.431 67.8812L193.699 57.9411L204.798 46.8614L203.303 43.5504ZM222.256 105.024L117.172 149.091L116.708 148.786L113.496 149.306L108.736 139.907L158.354 118.165L153.849 109.642L213.747 84.0829L221.012 96.7822L219.253 98.1375L222.256 105.024ZM149.722 138.55L172.436 129.025L186.699 140.769L164.465 150.041L149.722 138.55ZM162.946 150.674L136.227 161.815C134.834 160.867 133.299 159.83 131.631 158.708C127.211 155.736 122.769 152.788 120.052 150.992L148.206 139.185L162.946 150.674ZM209.119 132.973L212.012 137.718L220.371 132.315L225.287 136.826L233.498 130.401L234.222 131.489L206.64 153.703L206.44 153.864L204.131 164.974L178.461 145.757L209.119 132.973ZM225.361 134.948L220.523 130.509L212.469 135.715L210.032 131.717L207.221 126.54L224.265 116.521L232.702 129.204L225.361 134.948ZM205.301 126.006L208.402 131.719L188.196 140.145L173.929 128.398L219.464 109.303L223.47 115.325L205.301 126.006ZM96.2455 107.122L110.238 100.968L121.033 122.088L103.5 129.569L97.4746 117.672L100.205 116.362L96.2455 107.122ZM166.901 74.8623L156.173 79.7614L150.246 67.8304L161.272 62.7843L161.254 62.8796L166.901 74.8623ZM127.661 82.3092L131.007 88.704L118.891 94.0317L115.642 87.7838L127.661 82.3092ZM114.98 86.5103L114.032 84.6878L126.105 79.3372L126.995 81.0378L114.98 86.5103ZM138.965 88.3363L143.295 96.6611L116.048 109.186L111.552 100.391L138.965 88.3363ZM143.958 97.9347L146.593 103.001L159.508 97.2065L162.94 104.205L122.354 121.524L116.701 110.463L143.958 97.9347ZM160.185 95.3317L147.24 101.14L140.214 87.6319L140.239 87.538L158.785 88.241L158.873 88.4166L159.195 88.2568L173.468 88.7972L177.751 97.8845L164.26 103.641L160.185 95.3317ZM168.816 75.5632L181.383 69.8234L191.866 91.8616L179.071 97.3219L168.816 75.5632ZM172.78 87.3373L159.691 86.8406L156.812 81.0457L167.512 76.1587L172.78 87.3373ZM158.059 86.779L140.616 86.1183L144.814 70.3158L148.941 68.4266L158.059 86.779ZM142.658 67.2678L139.48 61.1302L144.979 58.5266L142.658 67.2678ZM142.11 69.3282L137.751 85.7384L132.322 88.1256L122.42 69.2064L138.184 61.7437L142.11 69.3282ZM125.439 78.0651L113.369 83.4136L109.228 75.4528L121.124 69.8205L125.439 78.0651ZM117.576 94.6093L95.5245 104.307L87.1431 85.9083L107.931 76.0663L117.576 94.6093ZM152.526 110.207L156.366 117.472L108.088 138.626L104.149 130.85L152.526 110.207ZM213.489 82.6345L193.185 91.2983L182.592 69.0279L187.84 63.7891L193.714 75.4987L216.024 75.895L213.489 82.6345ZM194.607 74.0811L188.908 62.7227L192.623 59.0146L197.515 69.2909L218.303 69.8377L216.56 74.471L194.607 74.0811ZM181.312 68.2797L168.205 74.2667L162.749 62.689L162.868 62.054L201.999 44.1467L203.083 46.5475L181.312 68.2797ZM161.597 61.0593L145.291 68.5212L148.131 57.83L163.571 50.5716L161.597 61.0593ZM145.461 56.7127L86.549 84.6032L83.3476 77.5756L138.889 52.1669L145.467 56.6898L145.461 56.7127ZM114.252 61.8612L107.918 50.9005L111.131 49.5482L118.079 54.6666L119.757 53.8697L122.166 58.2406L114.252 61.8612ZM112.942 62.4604L103.993 66.5547L97.8744 55.1274L106.586 51.461L112.942 62.4604ZM102.687 67.1517L96.8475 69.8234L90.8984 58.0629L96.5472 55.6857L102.687 67.1517ZM95.5431 70.4204L89.8936 73.0047L83.7439 61.0743L89.574 58.6205L95.5431 70.4204ZM88.5886 73.6017L82.7535 76.2713L77.1033 63.8686L82.4188 61.6319L88.5886 73.6017ZM65.7742 65.5263L61.4793 58.1518L73.4841 53.1989L77.9232 60.4136L65.7742 65.5263ZM79.9492 73.5737L94.2123 104.883L92.4916 105.64L96.4884 114.966L79.8431 122.956L86.2981 136.031L77.1191 140.268L60.7318 104.409L76.8102 97.4323L67.2534 78.905L79.9492 73.5737ZM90.1717 137.401L83.6966 124.286L96.1817 118.293L112.011 149.546L75.7574 155.412L73.8468 151.994L72.8979 151.431L70.7121 146.382L90.1717 137.401ZM93.0828 156.964L80.7691 177.967L76.6196 175.621L87.2083 157.915L93.0828 156.964ZM219.282 203.237L194.199 191.506L173.289 198.393L147.001 179.551C147.022 178.669 147.049 177.38 147.066 176.063C147.132 171.059 146.998 170.522 146.909 170.166C146.702 169.335 146.143 168.845 144.821 167.844C144.043 167.255 142.921 166.445 141.484 165.438C140.392 164.672 139.107 163.783 137.64 162.779L164.244 151.685L221.881 196.61L219.282 203.237ZM165.763 151.053L176.925 146.398L204.076 166.723L222.698 194.526L222.426 195.218L165.763 151.053ZM220.81 108.738L224.15 107.338L230.572 119.701L240.965 126.873L238.621 135.514L220.81 108.738ZM225.54 105.383L241.4 89.0781L249.379 95.8578L246.519 106.398L228.088 111.808L225.477 106.782L226.045 106.543L225.54 105.383ZM224.921 103.964L222.775 99.0426L250.446 77.7225L224.921 103.964ZM231.68 118.724L228.761 113.104L246.079 108.021L241.363 125.406L231.68 118.724ZM247.692 107.547L269.125 101.256L270.8 107.999L245.792 114.552L247.692 107.547ZM248.132 105.924L251 95.3547L242.402 88.0482L258.427 71.5728L261.219 69.4221L268.779 99.8639L248.132 105.924ZM222.158 95.8993L214.842 83.1104L225.279 55.3639V55.3632L234.705 30.153L237.469 46.0007L257.778 49.4307L258.936 52.6721L260.599 66.2802L222.158 95.8993ZM224.333 53.8002L214.169 37.0015L202.713 42.2439L198.962 33.9363L232.607 18.1216L234.219 27.3616L224.333 53.8002ZM201.409 42.8409L163.193 60.329L165.172 49.8198L197.665 34.5462L201.409 42.8409ZM176.714 41.227L170.051 29.9818L177.183 26.5948L183.955 37.8228L176.714 41.227ZM175.41 41.8397L169.711 44.5186L162.915 33.3716L168.751 30.5995L175.41 41.8397ZM168.406 45.1321L163.023 47.6619L155.843 36.7306L161.613 33.9901L168.406 45.1321ZM161.713 48.2775L146.3 55.523L139.031 50.5257L123.473 57.6429L121.054 53.2534L154.536 37.3512L161.713 48.2775ZM118.398 51.3413L112.474 46.9768L117.405 34.7168L131.885 44.9357L118.398 51.3413ZM111.149 46.4307L93.3122 53.937L83.5877 37.2889L115.977 34.4258L111.149 46.4307ZM72.723 51.9626L60.7518 56.9012L55.9237 48.6108L67.0642 42.7657L72.723 51.9626ZM64.4419 66.0874L42.9405 75.1368L38.0564 67.8153L60.142 58.7036L64.4419 66.0874ZM42.0382 89.4938L65.9276 79.4619L74.8336 96.7278L59.1322 103.541L53.2147 139.764L36.7485 130.004L42.0382 89.4938ZM40.7239 88.4911L26.7145 94.3743L27.5171 84.738L42.0103 78.6377L40.7239 88.4911ZM70.6583 155.102L73.472 160.137L83.5103 158.513L74.1234 174.21L42.9126 156.568L52.7546 144.489L70.6583 155.102ZM75.8835 176.852L80.0438 179.203L72.7066 191.718L68.5685 189.085L75.8835 176.852ZM68.1486 205.159L78.3016 213.077L60.6508 255.449L46.1641 242.653L68.1486 205.159ZM69.1934 238.669L81.1467 242.211L74.1385 259.771L61.8964 256.186L69.1934 238.669ZM82.527 242.62L90.6476 245.026L83.9769 262.652L75.5202 260.175L82.527 242.62ZM83.0602 241.283L103.292 190.595L110.013 193.858L91.1564 243.682L83.0602 241.283ZM111.308 194.487L119.096 198.268L104.687 241.41L94.8 238.105L111.308 194.487ZM91.0324 183.047C93.6296 178.289 97.1807 171.824 98.3217 169.847C98.6649 170.049 99.1623 170.325 99.8008 170.671C101.044 171.345 102.876 172.31 105.246 173.538C109.234 175.605 114.801 178.451 121.796 181.995C132.221 187.277 142.776 192.573 145.324 193.85L143.088 199.767L160.264 208.594L157.094 215.127L91.0324 183.047ZM159.147 217.461L253.33 245.132L250.803 257.175L152.297 231.577L159.147 217.461ZM255.005 244.13L254.982 244.122L257.138 231.603L216.998 220.091L221.322 208.938L288.834 240.515L288.337 247.304L295.505 250.287L252.265 257.186L255.005 244.13ZM289.842 246.378L290.223 241.165L306.11 248.595L298.201 249.857L289.842 246.378ZM299.605 240.806L309.546 217.46L317.313 221.256L307.366 244.436L299.605 240.806ZM318.603 221.886L338.289 231.506L332.568 245.759L312.247 236.699L318.603 221.886ZM331.824 226.752L264.918 194.056L275.017 166.302L342.308 204.222L331.824 226.752ZM263.623 193.423L249.702 186.621L259.972 157.824L273.75 165.588L263.623 193.423ZM248.407 185.988L233.517 178.712L245.012 149.393L258.705 157.109L248.407 185.988ZM243.654 143.08L239.676 137.1L240.498 134.068L253.655 134.878L243.654 143.08ZM240.881 132.656L242.363 127.193L269.095 122.215L255.284 133.542L240.881 132.656ZM242.779 125.657L245.359 116.147L271.145 109.39L273.444 118.648L271.395 120.329L242.779 125.657ZM262.479 68.5506L277.541 62.1479L274.147 115.532L262.479 68.5506ZM279.017 61.5201L305.346 50.3286L326.149 86.5647L277.497 121.086L275.452 117.609L279.017 61.5201ZM326.865 87.8139L329.66 92.6822L280.301 125.852L278.226 122.326L326.865 87.8139ZM393.355 128.039L401.289 132.467L389.806 147.886L381.296 143.041L393.355 128.039ZM380.035 142.322L366.822 134.799L379.172 120.126L392.085 127.331L380.035 142.322ZM392.996 126.198L380.111 119.009L395.052 101.258L407.764 107.825L392.996 126.198ZM394.157 100.097L365.555 134.078L356.943 129.174L371.336 112.961L374.887 115.14L384.513 101.066L387.272 102.538L387.947 101.273L380.488 97.2947L379.813 98.5589L383.24 100.387L374.473 113.205L371.062 111.111L355.941 128.144L349.939 117.859L375.754 98.6578V85.1909L394.157 81.7774V100.097ZM354.955 129.299L351.937 133.127L344.399 133.595L335.498 126.881L346.187 118.873L347.01 120.037L348.782 118.719L354.955 129.299ZM334.306 125.982L326.968 120.446L340.655 111.055L345.358 117.702L334.306 125.982ZM325.761 119.536L317.826 113.551L334.364 102.162L339.828 109.885L325.761 119.536ZM316.62 112.641L312.404 109.46L330.787 97.1062L333.536 100.993L316.62 112.641ZM311.144 110.306L315.376 113.498L288.721 131.852L282.721 129.406L311.144 110.306ZM300.87 138.351L311.834 142.819L309.893 144.274L299.966 138.971L300.87 138.351ZM302.285 137.38L325.721 121.302L333.112 126.877L313.172 141.817L302.285 137.38ZM334.304 127.775L343.379 134.622L341.92 141.209L328.688 148.141L314.72 142.448L334.304 127.775ZM342.514 142.516L352.914 149.097L346.22 157.05L330.287 148.921L342.514 142.516ZM343.356 141.352L344.762 135.009L352.666 134.518L356.001 130.287L364.616 135.193L353.846 147.99L343.356 141.352ZM365.883 135.914L379.14 143.462L369.263 156.347L355.107 148.717L365.883 135.914ZM380.397 144.178L388.949 149.047L379.554 161.893L370.541 157.035L380.397 144.178ZM390.202 149.761L401.677 156.294L392.875 169.072L380.828 162.579L390.202 149.761ZM402.926 157.006L413.397 162.968L404.993 175.603L394.144 169.756L402.926 157.006ZM402.489 155.107L391.061 148.6L402.552 133.171L413.328 139.183L402.489 155.107ZM402.153 131.307L394.266 126.906L409.063 108.496L416.34 112.256L402.153 131.307ZM408.373 106.526L395.59 99.922V81.5115L415.022 77.9067L408.373 106.526ZM373.316 81.2693L368.939 72.7281L384.595 58.6377L392.556 66.7647L396.192 63.4315L407.302 74.9655L373.316 81.2693ZM371.845 81.5423L371.454 81.6147V96.497L347.977 113.959L336.864 98.2514L354.301 70.3996L367.568 73.1953L371.845 81.5423ZM367.394 71.6939L353.618 68.7907L335.968 96.9836L331.873 91.1958L330.853 91.881L306.674 49.7639L311.531 47.6992L303.44 39.446L355.045 24.1667L363.441 35.8885L369.144 47.6734L367.394 71.6939ZM365.118 36.0641L380.385 32.0701L370.001 46.1526L365.118 36.0641ZM373.477 6.82625L378.79 8.56632L364.51 32.4586L361.032 27.6024L373.477 6.82625ZM366.968 4.69488L372.08 6.36902L360.122 26.3325L356.87 21.791L366.968 4.69488ZM353.999 0.448633L365.572 4.23837L355.678 20.9897L339.247 25.8545L336.255 15.9143L353.999 0.448633ZM335.639 4.36163L340.569 10.2534L334.616 15.442L337.873 26.2615L298.057 38.05L306.542 46.7052L288.81 54.2424L283.091 48.8244L335.639 4.36163ZM287.055 43.592L280.943 48.7642L287.372 54.8544L261.967 65.6531L260.395 52.7961L279.65 36.0039L287.055 43.592ZM298.868 5.87667V17.3412L259.959 51.2746L259.091 48.8473L268.866 30.0549L265.875 20.7984L298.868 5.87667ZM267.318 29.9251L257.917 48.0009L238.707 44.7566L236.82 33.9392L264.56 21.3932L267.318 29.9251ZM264.117 20.0208L236.567 32.4815L235.761 27.8633L262.851 16.1057L264.117 20.0208ZM259.428 5.51475L262.408 14.7354L235.507 26.4106L233.952 17.4895L259.428 5.51475ZM233.054 0.0587667L239.344 11.7877L228.949 16.6733L222.53 5.0568L233.054 0.0587667ZM221.233 5.67313L227.649 17.2846L216.107 22.7097L209.631 11.1836L221.233 5.67313ZM208.334 11.7999L214.807 23.3211L206.006 27.4577L199.348 16.0677L208.334 11.7999ZM198.049 16.6847L204.704 28.0704L196.22 32.0572L189.649 20.6737L198.049 16.6847ZM188.35 21.2907L194.919 32.6693L185.26 37.2093L178.484 25.977L188.35 21.2907ZM173.023 0.874333L186.732 18.8856L176.855 23.5769L165.315 8.63942L173.023 0.874333ZM164.297 9.66568L175.53 24.2061L168.552 27.5207L158.459 15.5466L164.297 9.66568ZM157.445 16.5679L167.213 28.1564L161.394 30.9206L152.853 21.194L157.445 16.5679ZM151.841 22.2131L160.048 31.5598L153.886 34.486L146.051 28.0453L151.841 22.2131ZM131.856 18.4126H132.074L152.456 35.1654L133.371 44.2298L118.154 33.4913L131.856 18.4126ZM129.919 18.4126L116.736 32.9201L77.0008 36.4325L85.1715 19.0547L112.776 18.4126H129.919ZM90.639 7.42753L122.776 6.52668L112.461 16.9857L85.8531 17.6056L90.639 7.42753ZM87.7816 10.1358L80.9518 24.6612L75.0866 17.6329L87.7816 10.1358ZM73.836 18.3718L80.2789 26.0924L75.2722 36.7406L72.1605 38.4592L62.2203 25.2317L73.836 18.3718ZM50.9579 12.6305L60.1126 24.8124L46.817 32.665L38.0686 20.9389L50.9579 12.6305ZM32.5797 41.9666L23.8492 30.105L36.861 21.7172L46.4379 34.5534L60.979 25.9655L70.8826 39.1443L47.586 51.3671L39.1465 38.4742L38.303 38.8878L32.5797 41.9666ZM14.1871 69.0852L32.0013 61.3323L39.0856 40.9976L47.0993 53.2405L54.653 49.2773L59.4138 57.453L35.8943 67.1574L41.5946 75.7029L27.7852 81.5144L27.8217 81.0758L14.1871 69.0852ZM24.3595 122.66L26.5805 95.9846L40.5096 90.1359L35.4069 129.209L24.3595 122.66ZM34.9361 133.928L51.5076 143.75L40.7282 156.98L73.3874 175.441L66.1734 187.504L45.8788 173.635L19.4654 172.889L36.8725 152.969L24.5845 145.419L34.9361 133.928ZM15.4191 200.227L21.9013 192.918L0.4386 172.221L23.6084 146.502L34.6774 153.302L16.3852 174.237L45.418 175.056L53.5866 180.638L24.1581 209.343L15.4191 200.227ZM24.123 211.378L24.1244 211.379L40.5476 195.359L45.3528 202.026L55.3195 195.154L59.6009 198.493L36.6632 236.849L33.0111 239.452L17.6071 217.7L24.123 211.378ZM9.9072 225.172L16.5665 218.711L31.8436 240.283L23.9223 245.928L9.9072 225.172ZM22.3328 256.942L16.5357 254.713L38.8161 238.835L61.8792 200.27L65.8681 203.381L43.6142 241.336L22.3328 256.942ZM54.9053 269.242L25.5255 258.156L45.2088 243.722L60.0689 256.847L54.9053 269.242ZM68.8165 273.103L56.2748 269.681L61.3417 257.517L73.6045 261.108L68.8165 273.103ZM78.9724 275.874L70.2083 273.483L74.9863 261.512L83.468 263.996L78.9724 275.874ZM91.9899 279.425L80.362 276.253L84.8476 264.401L95.9251 267.643L91.9899 279.425ZM96.3795 266.283L85.3564 263.055L94.2918 239.446L104.233 242.769L96.3795 266.283ZM141.455 279.482L97.7555 266.687L120.396 198.899L129.163 203.157L115.57 243.906L115.498 244.122L119.34 256.872L131.958 258.855L134.619 252.038L145.657 253.353L141.455 279.482ZM145.884 251.936L133.686 250.484L131.042 257.26L120.877 255.662L128.12 236.352L134.571 238.711L138.36 229.213L143.725 231.293L144.244 229.958L132.06 225.233L131.542 226.569L137.023 228.695L133.756 236.887L127.278 234.517L119.971 253.996L117.002 244.144L130.463 203.788L156.468 216.416L149.181 231.43L145.884 251.936ZM221.164 271.967V260.903L148.733 252.276L151.842 232.939L250.508 258.579L250.434 258.93L308.423 249.677L321.134 255.622L221.164 271.967ZM352.45 265.522L308.665 245.043L311.681 238.016L355.611 257.603L352.45 265.522ZM356.143 256.271L333.878 246.343L339.58 232.137L361.501 242.849L356.143 256.271ZM357.431 256.911L363.078 242.764L371.916 220.907L385.531 228.58L371.194 264.609L357.431 256.911ZM414.458 244.881L399.403 280.388L386.771 273.322L401.753 237.721L414.458 244.881ZM400.496 237.012L385.512 272.618L372.456 265.315L386.792 229.29L400.496 237.012ZM372.173 199.029L393.934 210.628L386.109 227.26L364.484 215.074L372.173 199.029ZM370.907 198.355L363.232 214.369L323.161 191.787L331.693 177.453L370.907 198.355ZM330.426 176.778L321.912 191.083L304.649 181.355L314.843 168.472L330.426 176.778ZM303.384 180.643L245.54 148.045L246.09 146.643L274.053 123.711L278.909 131.968L281.08 130.51L324.644 153.776L303.384 180.643ZM325.494 152.605L311.289 145.019L313.382 143.45L327.654 149.267L325.494 152.605ZM326.763 153.283L328.976 149.862L345.272 158.176L342.374 161.62L326.763 153.283ZM343.666 162.31L354.165 149.837L368.38 157.499L358.584 170.277L343.666 162.31ZM359.866 170.962L369.658 158.188L378.7 163.061L369.255 175.976L359.866 170.962ZM370.532 176.658L379.974 163.748L392.058 170.26L383.047 183.341L370.532 176.658ZM407.389 196.342L384.319 184.021L393.327 170.944L404.195 176.802L395.624 189.687L396.818 190.481L405.463 177.485L415.583 182.938L407.389 196.342ZM424.075 169.048L416.332 181.714L406.26 176.286L414.645 163.679L424.075 169.048ZM424.804 145.587L414.187 161.768L403.738 155.818L414.585 139.885L424.804 145.587ZM427.672 118.111L414.137 137.993L403.415 132.011L417.631 112.923L427.672 118.111ZM426.244 75.8255L416.943 110.954L409.687 107.205L416.56 77.6215L426.244 75.8255ZM418.761 72.8399L408.991 74.6523L397.249 62.4625L402.604 57.5534L418.761 72.8399ZM405.99 52.5052L392.609 64.7709L384.657 56.6532L368.893 70.8404L370.573 47.7924L382.592 31.4932L383.215 31.3298L395.743 42.7549L405.99 52.5052ZM396.164 41.199L384.868 30.8977L410.626 24.1595L396.164 41.199ZM398.955 18.3839H421.378L394.663 25.3722L392.751 20.4702L398.955 18.3839ZM393.267 25.7377L384.545 28.0188L389.835 16.9363L393.267 25.7377Z" fill="white" fill-opacity="0.02"/>
</svg>
